<svg width="383" height="54" viewBox="0 0 383 54" fill="none" xmlns="http://www.w3.org/2000/svg">
<g clip-path="url(#clip0_81_275)">
<path d="M376.916 24.6101V40.1222C376.916 41.8386 377.345 43.1903 378.203 44.1773C379.062 45.1213 380.242 45.5933 381.744 45.5933C383.589 45.5933 385.391 45.014 387.15 43.8554L389.146 49.4552C386.485 51.0858 383.868 51.9011 381.293 51.9011C377.774 51.9011 375.05 50.9142 373.119 48.9403C371.188 46.9664 370.222 44.1987 370.222 40.6372V24.6101H363.335V19.0746H370.222V6.71644L376.916 4.65674V19.0746H390.111V24.6101H376.916Z" fill="#394197"/>
<path d="M345.738 18.1736C350.544 18.1736 354.599 19.7613 357.903 22.9366C361.25 26.112 362.923 30.1456 362.923 35.0374C362.923 39.9292 361.25 43.9628 357.903 47.1381C354.599 50.3135 350.544 51.9012 345.738 51.9012C340.889 51.9012 336.791 50.3135 333.444 47.1381C330.097 43.9628 328.423 39.9292 328.423 35.0374C328.423 30.1456 330.097 26.112 333.444 22.9366C336.791 19.7613 340.889 18.1736 345.738 18.1736ZM345.738 45.9796C348.699 45.9796 351.209 44.9712 353.268 42.9544C355.371 40.8947 356.422 38.2557 356.422 35.0374C356.422 31.8191 355.371 29.2016 353.268 27.1848C351.209 25.1251 348.699 24.0952 345.738 24.0952C342.691 24.0952 340.138 25.1036 338.078 27.1204C336.018 29.1372 334.989 31.7762 334.989 35.0374C334.989 38.2986 336.018 40.9376 338.078 42.9544C340.138 44.9712 342.691 45.9796 345.738 45.9796Z" fill="#394197"/>
<path d="M308.509 18.1736C313.315 18.1736 317.37 19.7613 320.674 22.9366C324.021 26.112 325.694 30.1456 325.694 35.0374C325.694 39.9292 324.021 43.9628 320.674 47.1381C317.37 50.3135 313.315 51.9012 308.509 51.9012C303.66 51.9012 299.562 50.3135 296.215 47.1381C292.868 43.9628 291.194 39.9292 291.194 35.0374C291.194 30.1456 292.868 26.112 296.215 22.9366C299.562 19.7613 303.66 18.1736 308.509 18.1736ZM308.509 45.9796C311.47 45.9796 313.98 44.9712 316.039 42.9544C318.142 40.8947 319.193 38.2557 319.193 35.0374C319.193 31.8191 318.142 29.2016 316.039 27.1848C313.98 25.1251 311.47 24.0952 308.509 24.0952C305.462 24.0952 302.909 25.1036 300.849 27.1204C298.789 29.1372 297.76 31.7762 297.76 35.0374C297.76 38.2986 298.789 40.9376 300.849 42.9544C302.909 44.9712 305.462 45.9796 308.509 45.9796Z" fill="#394197"/>
<path d="M272.687 18.1736C276.978 18.1736 280.69 19.7613 283.822 22.9367C286.955 26.112 288.521 30.1456 288.521 35.0374C288.521 39.9721 286.955 44.0272 283.822 47.2025C280.733 50.335 277.021 51.9012 272.687 51.9012C267.881 51.9012 264.019 50.3779 261.101 47.3313V51.0001H254.407V-0.492432H261.101V22.7436C264.019 19.6969 267.881 18.1736 272.687 18.1736ZM271.593 45.9796C274.597 45.9796 277.085 44.9926 279.059 43.0188C281.033 41.002 282.02 38.3415 282.02 35.0374C282.02 31.7333 281.033 29.0943 279.059 27.1204C277.085 25.1037 274.597 24.0953 271.593 24.0953C268.804 24.0953 266.358 25.1251 264.255 27.1848C262.153 29.2016 261.101 31.8191 261.101 35.0374C261.101 38.2557 262.153 40.8947 264.255 42.9544C266.358 44.9712 268.804 45.9796 271.593 45.9796Z" fill="#394197"/>
<path d="M223.897 24.6101V40.1222C223.897 41.8386 224.326 43.1903 225.184 44.1773C226.043 45.1213 227.223 45.5933 228.725 45.5933C230.57 45.5933 232.372 45.014 234.131 43.8554L236.127 49.4552C233.466 51.0858 230.849 51.9011 228.274 51.9011C224.755 51.9011 222.03 50.9142 220.1 48.9403C218.169 46.9664 217.203 44.1987 217.203 40.6372V24.6101H210.316V19.0746H217.203V6.71644L223.897 4.65674V19.0746H237.092V24.6101H223.897Z" fill="#394197"/>
<path d="M207.465 18.6885C208.409 18.6885 209.16 18.7743 209.718 18.9459L209.267 25.3825C208.924 25.3396 208.302 25.3181 207.401 25.3181C203.453 25.3181 200.449 26.6055 198.39 29.1801C196.33 31.7118 195.3 35.2305 195.3 39.7361V51H188.606V19.0747H195.3V25.64C197.96 21.0056 202.015 18.6885 207.465 18.6885Z" fill="#394197"/>
<path d="M180.462 19.0747V51.0001H173.703V47.3956C170.7 50.3993 166.838 51.9012 162.118 51.9012C157.827 51.9012 154.115 50.3135 150.982 47.1381C147.85 43.9628 146.284 39.9292 146.284 35.0374C146.284 30.1456 147.85 26.112 150.982 22.9366C154.115 19.7613 157.827 18.1736 162.118 18.1736C166.881 18.1736 170.743 19.6969 173.703 22.7435V19.0747H180.462ZM163.212 45.9796C166.001 45.9796 168.447 44.9712 170.55 42.9544C172.652 40.9376 173.703 38.2986 173.703 35.0374C173.703 31.8191 172.652 29.2016 170.55 27.1848C168.447 25.1251 166.001 24.0952 163.212 24.0952C160.251 24.0952 157.784 25.1036 155.81 27.1204C153.836 29.1372 152.849 31.7762 152.849 35.0374C152.849 38.3415 153.836 41.0019 155.81 43.0187C157.784 44.9926 160.251 45.9796 163.212 45.9796Z" fill="#394197"/>
<path d="M129.467 18.1736C132.857 18.1736 135.71 19.3322 138.028 21.6493C140.388 23.9665 141.568 26.9702 141.568 30.6605V51.0001H134.938V32.0122C134.938 29.695 134.251 27.8499 132.878 26.4768C131.548 25.0607 129.832 24.3527 127.729 24.3527C125.069 24.3527 122.966 25.2753 121.421 27.1204C119.876 28.9656 119.104 31.6475 119.104 35.1661V51.0001H112.41V32.0122C112.41 29.695 111.723 27.8499 110.35 26.4768C109.02 25.0607 107.304 24.3527 105.201 24.3527C102.584 24.3527 100.502 25.2753 98.9576 27.1204C97.4557 28.9656 96.7048 31.6475 96.7048 35.1661V51.0001H90.0107V19.0747H96.7048V22.6792C99.1507 19.6755 102.562 18.1736 106.939 18.1736C109.256 18.1736 111.337 18.6885 113.182 19.7184C115.07 20.7482 116.529 22.1857 117.559 24.0309C120.348 20.126 124.318 18.1736 129.467 18.1736Z" fill="#394197"/>
<path d="M59.3813 42.4394L66.1397 41.0234C66.3543 42.8686 67.0838 44.2631 68.3282 45.2072C69.5726 46.1512 71.0959 46.6232 72.8981 46.6232C74.6575 46.6232 76.0306 46.2156 77.0175 45.4003C78.0474 44.5421 78.5623 43.4693 78.5623 42.182C78.5623 40.3368 77.4037 39.1139 75.0866 38.5131L68.4569 36.7753C63.0073 35.4021 60.2825 32.5057 60.2825 28.0859C60.2825 25.1251 61.3552 22.7435 63.5008 20.9413C65.6463 19.0962 68.4998 18.1736 72.0614 18.1736C75.4513 18.1736 78.2619 19.0318 80.4933 20.7482C82.7675 22.4217 84.1836 24.6316 84.7414 27.3779L78.3692 28.7296C78.1118 27.1419 77.4466 25.8546 76.3739 24.8676C75.3011 23.8378 73.8636 23.3228 72.0614 23.3228C70.5166 23.3228 69.2937 23.6876 68.3925 24.4171C67.4914 25.1465 67.0409 26.1335 67.0409 27.3779C67.0409 29.3088 68.4355 30.6176 71.2246 31.3042L77.4681 32.9777C82.5744 34.3079 85.1276 37.2044 85.1276 41.6671C85.1276 44.8853 83.969 47.3956 81.6519 49.1978C79.3776 51.0001 76.331 51.9012 72.5119 51.9012C69.0362 51.9012 66.0539 51.1074 63.5651 49.5197C61.1192 47.932 59.7246 45.5719 59.3813 42.4394Z" fill="#394197"/>
<g clip-path="url(#clip1_81_275)">
<path d="M10.85 0.0898438L21.6998 17.8669H0L10.85 0.0898438Z" fill="#36207A"/>
<path d="M43.4003 53.4222L32.5503 35.645H54.2501L43.4003 53.4222Z" fill="#86269E"/>
<path d="M10.85 35.6461L21.6998 17.8689H0L10.85 35.6461Z" fill="#281759"/>
<path d="M43.4003 17.8689L32.5503 35.646H54.2501L43.4003 17.8689Z" fill="#631F82"/>
<path d="M32.5501 0.0898438L43.4 17.8669H21.7002L32.5501 0.0898438Z" fill="#2A54D0"/>
<path d="M21.6995 53.4222L10.8496 35.645H32.5495L21.6995 53.4222Z" fill="#D935CC"/>
<path d="M21.6996 17.8687L32.5495 0.0915527H10.8496L21.6996 17.8687Z" fill="#3B33AA"/>
<path d="M32.5502 35.6467L21.7002 53.4238H43.4L32.5502 35.6467Z" fill="#AC2CB2"/>
<path d="M43.4002 17.8687L54.2501 0.0915527H32.5503L43.4002 17.8687Z" fill="#3E8ADA"/>
<path d="M10.8508 35.6467L0.000976562 53.4238H21.7008L10.8508 35.6467Z" fill="#ED4DE4"/>
</g>
</g>
<defs>
<clipPath id="clip0_81_275">
<rect width="383" height="54" fill="white"/>
</clipPath>
<clipPath id="clip1_81_275">
<rect width="55" height="53.3333" fill="white" transform="translate(0 0.0898438)"/>
</clipPath>
</defs>
</svg>
