<svg width="55" height="54" viewBox="0 0 55 54" fill="none" xmlns="http://www.w3.org/2000/svg">
<g clip-path="url(#clip0_81_325)">
<g clip-path="url(#clip1_81_325)">
<path d="M10.85 0.0898438L21.6998 17.8669H0L10.85 0.0898438Z" fill="#3A6BFB"/>
<path d="M43.4003 53.4222L32.5503 35.645H54.2501L43.4003 53.4222Z" fill="#86269E"/>
<path d="M10.85 35.6461L21.6998 17.8689H0L10.85 35.6461Z" fill="#2A54D0"/>
<path d="M43.4003 17.8689L32.5503 35.646H54.2501L43.4003 17.8689Z" fill="#631F82"/>
<path d="M32.5501 0.0898438L43.4 17.8669H21.7002L32.5501 0.0898438Z" fill="#799FE9"/>
<path d="M21.6995 53.4222L10.8496 35.645H32.5495L21.6995 53.4222Z" fill="#D935CC"/>
<path d="M21.6996 17.8687L32.5495 0.0915527H10.8496L21.6996 17.8687Z" fill="#587FDF"/>
<path d="M32.5502 35.6467L21.7002 53.4238H43.4L32.5502 35.6467Z" fill="#AC2CB2"/>
<path d="M43.4002 17.8687L54.2501 0.0915527H32.5503L43.4002 17.8687Z" fill="#B6D9FD"/>
<path d="M10.8508 35.6467L0.000976562 53.4238H21.7008L10.8508 35.6467Z" fill="#ED4DE4"/>
</g>
</g>
<defs>
<clipPath id="clip0_81_325">
<rect width="55" height="54" fill="white"/>
</clipPath>
<clipPath id="clip1_81_325">
<rect width="55" height="53.3333" fill="white" transform="translate(0 0.0898438)"/>
</clipPath>
</defs>
</svg>
