<svg width="383" height="54" viewBox="0 0 383 54" fill="none" xmlns="http://www.w3.org/2000/svg">
<g clip-path="url(#clip0_61_15052)">
<path d="M376.916 24.6101V40.1222C376.916 41.8386 377.346 43.1903 378.204 44.1773C379.062 45.1213 380.242 45.5933 381.744 45.5933C383.589 45.5933 385.391 45.014 387.151 43.8554L389.146 49.4552C386.486 51.0858 383.868 51.9011 381.293 51.9011C377.775 51.9011 375.05 50.9142 373.119 48.9403C371.188 46.9664 370.222 44.1987 370.222 40.6372V24.6101H363.335V19.0746H370.222V6.71644L376.916 4.65674V19.0746H390.111V24.6101H376.916Z" fill="white"/>
<path d="M345.738 18.1733C350.544 18.1733 354.599 19.761 357.903 22.9364C361.25 26.1118 362.924 30.1454 362.924 35.0372C362.924 39.9289 361.25 43.9625 357.903 47.1379C354.599 50.3133 350.544 51.901 345.738 51.901C340.889 51.901 336.791 50.3133 333.444 47.1379C330.097 43.9625 328.424 39.9289 328.424 35.0372C328.424 30.1454 330.097 26.1118 333.444 22.9364C336.791 19.761 340.889 18.1733 345.738 18.1733ZM345.738 45.9793C348.699 45.9793 351.209 44.9709 353.269 42.9541C355.371 40.8944 356.423 38.2554 356.423 35.0372C356.423 31.8189 355.371 29.2013 353.269 27.1845C351.209 25.1248 348.699 24.095 345.738 24.095C342.691 24.095 340.138 25.1034 338.078 27.1202C336.019 29.137 334.989 31.776 334.989 35.0372C334.989 38.2983 336.019 40.9373 338.078 42.9541C340.138 44.9709 342.691 45.9793 345.738 45.9793Z" fill="white"/>
<path d="M308.509 18.1733C313.315 18.1733 317.37 19.761 320.674 22.9364C324.021 26.1118 325.695 30.1454 325.695 35.0372C325.695 39.9289 324.021 43.9625 320.674 47.1379C317.37 50.3133 313.315 51.901 308.509 51.901C303.66 51.901 299.562 50.3133 296.215 47.1379C292.868 43.9625 291.195 39.9289 291.195 35.0372C291.195 30.1454 292.868 26.1118 296.215 22.9364C299.562 19.761 303.66 18.1733 308.509 18.1733ZM308.509 45.9793C311.47 45.9793 313.98 44.9709 316.04 42.9541C318.142 40.8944 319.194 38.2554 319.194 35.0372C319.194 31.8189 318.142 29.2013 316.04 27.1845C313.98 25.1248 311.47 24.095 308.509 24.095C305.462 24.095 302.909 25.1034 300.849 27.1202C298.79 29.137 297.76 31.776 297.76 35.0372C297.76 38.2983 298.79 40.9373 300.849 42.9541C302.909 44.9709 305.462 45.9793 308.509 45.9793Z" fill="white"/>
<path d="M272.687 18.1734C276.978 18.1734 280.69 19.7611 283.823 22.9364C286.955 26.1118 288.521 30.1454 288.521 35.0372C288.521 39.9719 286.955 44.0269 283.823 47.2023C280.733 50.3348 277.021 51.901 272.687 51.901C267.881 51.901 264.019 50.3777 261.102 47.331V50.9999H254.407V-0.492676H261.102V22.7433C264.019 19.6967 267.881 18.1734 272.687 18.1734ZM271.593 45.9793C274.597 45.9793 277.086 44.9924 279.06 43.0185C281.033 41.0017 282.02 38.3413 282.02 35.0372C282.02 31.7331 281.033 29.0941 279.06 27.1202C277.086 25.1034 274.597 24.095 271.593 24.095C268.804 24.095 266.358 25.1249 264.255 27.1846C262.153 29.2014 261.102 31.8189 261.102 35.0372C261.102 38.2555 262.153 40.8945 264.255 42.9542C266.358 44.9709 268.804 45.9793 271.593 45.9793Z" fill="white"/>
<path d="M223.897 24.6101V40.1222C223.897 41.8386 224.326 43.1903 225.185 44.1773C226.043 45.1213 227.223 45.5933 228.725 45.5933C230.57 45.5933 232.372 45.014 234.131 43.8554L236.127 49.4552C233.466 51.0858 230.849 51.9011 228.274 51.9011C224.755 51.9011 222.031 50.9142 220.1 48.9403C218.169 46.9664 217.203 44.1987 217.203 40.6372V24.6101H210.316V19.0746H217.203V6.71644L223.897 4.65674V19.0746H237.092V24.6101H223.897Z" fill="white"/>
<path d="M207.465 18.6885C208.409 18.6885 209.16 18.7743 209.718 18.9459L209.268 25.3825C208.924 25.3396 208.302 25.3181 207.401 25.3181C203.453 25.3181 200.449 26.6055 198.39 29.1801C196.33 31.7118 195.3 35.2305 195.3 39.7361V51H188.606V19.0747H195.3V25.64C197.961 21.0056 202.016 18.6885 207.465 18.6885Z" fill="white"/>
<path d="M180.462 19.0745V50.9998H173.703V47.3954C170.7 50.3991 166.838 51.901 162.118 51.901C157.827 51.901 154.115 50.3133 150.982 47.1379C147.85 43.9625 146.284 39.9289 146.284 35.0372C146.284 30.1454 147.85 26.1118 150.982 22.9364C154.115 19.761 157.827 18.1733 162.118 18.1733C166.881 18.1733 170.743 19.6967 173.703 22.7433V19.0745H180.462ZM163.212 45.9793C166.001 45.9793 168.447 44.9709 170.55 42.9541C172.652 40.9373 173.703 38.2983 173.703 35.0372C173.703 31.8189 172.652 29.2013 170.55 27.1845C168.447 25.1248 166.001 24.095 163.212 24.095C160.251 24.095 157.784 25.1034 155.81 27.1202C153.836 29.137 152.849 31.776 152.849 35.0372C152.849 38.3413 153.836 41.0017 155.81 43.0185C157.784 44.9924 160.251 45.9793 163.212 45.9793Z" fill="white"/>
<path d="M129.467 18.1733C132.857 18.1733 135.711 19.3319 138.028 21.6491C140.388 23.9663 141.568 26.97 141.568 30.6603V50.9998H134.938V32.012C134.938 29.6948 134.252 27.8497 132.879 26.4765C131.548 25.0605 129.832 24.3524 127.729 24.3524C125.069 24.3524 122.966 25.275 121.421 27.1202C119.877 28.9653 119.104 31.6472 119.104 35.1659V50.9998H112.41V32.012C112.41 29.6948 111.724 27.8497 110.351 26.4765C109.02 25.0605 107.304 24.3524 105.201 24.3524C102.584 24.3524 100.503 25.275 98.9578 27.1202C97.456 28.9653 96.705 31.6472 96.705 35.1659V50.9998H90.011V19.0745H96.705V22.6789C99.1509 19.6752 102.562 18.1733 106.939 18.1733C109.256 18.1733 111.337 18.6883 113.183 19.7181C115.071 20.748 116.53 22.1855 117.559 24.0306C120.349 20.1258 124.318 18.1733 129.467 18.1733Z" fill="white"/>
<path d="M59.3815 42.4392L66.1399 41.0232C66.3545 42.8683 67.084 44.2629 68.3284 45.2069C69.5728 46.151 71.0961 46.623 72.8983 46.623C74.6577 46.623 76.0308 46.2153 77.0177 45.4C78.0476 44.5418 78.5625 43.4691 78.5625 42.1817C78.5625 40.3366 77.4039 39.1136 75.0868 38.5129L68.4571 36.775C63.0075 35.4019 60.2827 32.5054 60.2827 28.0857C60.2827 25.1248 61.3554 22.7433 63.5009 20.9411C65.6465 19.0959 68.5 18.1733 72.0616 18.1733C75.4515 18.1733 78.2621 19.0316 80.4935 20.748C82.7677 22.4215 84.1838 24.6314 84.7416 27.3776L78.3694 28.7293C78.1119 27.1416 77.4468 25.8543 76.3741 24.8674C75.3013 23.8375 73.8638 23.3226 72.0616 23.3226C70.5168 23.3226 69.2938 23.6873 68.3927 24.4168C67.4916 25.1463 67.041 26.1332 67.041 27.3776C67.041 29.3086 68.4356 30.6174 71.2248 31.3039L77.4683 32.9775C82.5746 34.3077 85.1278 37.2041 85.1278 41.6668C85.1278 44.8851 83.9692 47.3954 81.6521 49.1976C79.3778 50.9998 76.3312 51.901 72.5121 51.901C69.0364 51.901 66.0541 51.1071 63.5653 49.5194C61.1194 47.9317 59.7248 45.5717 59.3815 42.4392Z" fill="white"/>
<g clip-path="url(#clip1_61_15052)">
<path d="M10.85 0.0898438L21.6998 17.8669H0L10.85 0.0898438Z" fill="#3A6BFB"/>
<path d="M43.4004 53.4222L32.5504 35.645H54.2503L43.4004 53.4222Z" fill="#86269E"/>
<path d="M10.85 35.6458L21.6998 17.8687H0L10.85 35.6458Z" fill="#2A54D0"/>
<path d="M43.4004 17.8687L32.5504 35.6458H54.2503L43.4004 17.8687Z" fill="#631F82"/>
<path d="M32.5499 0.0898438L43.3999 17.8669H21.7L32.5499 0.0898438Z" fill="#799FE9"/>
<path d="M21.6995 53.4222L10.8496 35.645H32.5495L21.6995 53.4222Z" fill="#D935CC"/>
<path d="M21.6996 17.8685L32.5495 0.0913086H10.8496L21.6996 17.8685Z" fill="#587FDF"/>
<path d="M32.55 35.6465L21.7 53.4236H43.3999L32.55 35.6465Z" fill="#AC2CB2"/>
<path d="M43.4003 17.8685L54.2503 0.0913086H32.5504L43.4003 17.8685Z" fill="#B6D9FD"/>
<path d="M10.8507 35.6465L0.000854492 53.4236H21.7007L10.8507 35.6465Z" fill="#ED4DE4"/>
</g>
</g>
<defs>
<clipPath id="clip0_61_15052">
<rect width="383" height="54" fill="white"/>
</clipPath>
<clipPath id="clip1_61_15052">
<rect width="55" height="53.3333" fill="white" transform="translate(0 0.0898438)"/>
</clipPath>
</defs>
</svg>
